<?xml version="1.0" encoding="UTF-8"?>
<svg id="Layer_2" data-name="Layer 2" xmlns="http://www.w3.org/2000/svg" viewBox="0 0 1200 623.8">
  <defs>
    <style>
      .cls-1 {
        fill: #ffb20c;
      }

      .cls-1, .cls-2 {
        stroke-width: 0px;
      }

      .cls-2 {
        fill: #0b2972;
      }
    </style>
  </defs>
  <path class="cls-2" d="M385.88,254.63c-15.82-29-46.24-51.08-83.24-59.39,30.6-17.74,50.7-47.67,50.7-81.61,0-53.61-50.17-97.24-112.67-98.59v-.03H0v393.25h244.2c4.4.41,8.92.62,13.55.62,58.44,0,106.77-26.45,128.12-64.39v-89.85ZM92,66.75h109.71c30.95,0,56.04,25.18,56.04,56.25s-25.09,56.25-56.04,56.25h-50.36c.06.06.12.11.18.17h-59.53v-112.67ZM234.58,355.42H92v-122.42h142.58c36.4,0,65.92,27.4,65.92,61.21s-29.51,61.21-65.92,61.21Z"/>
  <path class="cls-1" d="M1200,209.81c0,115.88-104.09,209.81-232.5,209.81s-232.5-93.94-232.5-209.81S839.09,0,967.5,0s232.5,93.94,232.5,209.81ZM968.62,47.79c-74.25,0-134.45,72.42-134.45,161.76s60.19,161.76,134.45,161.76,134.45-72.42,134.45-161.76-60.19-161.76-134.45-161.76Z"/>
  <path class="cls-2" d="M735,209.94c0-36.4,10.28-70.63,28.35-100.47-39.18-56.47-109.77-94.15-190.35-94.15h-187.12v393.25h187.12c81.48,0,152.74-38.54,191.65-96.06-18.87-30.33-29.65-65.31-29.65-102.57ZM561.22,355.84h-80.55V67.06h80.55c70.66,0,127.95,64.64,127.95,144.39s-57.28,144.39-127.95,144.39Z"/>
  <path class="cls-2" d="M1176.53,466.28c0-.92.69-1.6,1.58-1.6h6.36c2.24,0,3.98.66,5.14,1.79.95,1,1.48,2.31,1.48,3.89v.06c0,2.88-1.64,4.59-4.04,5.35l3.41,4.33c.3.39.52.74.52,1.23,0,.85-.75,1.45-1.51,1.45-.71,0-1.17-.33-1.53-.81l-4.33-5.56h-3.95v4.81c0,.88-.69,1.56-1.55,1.56s-1.58-.68-1.58-1.56v-14.92ZM1184.25,473.59c2.24,0,3.65-1.18,3.65-3.02v-.04c0-1.91-1.36-2.96-3.67-2.96h-4.56v6.02h4.59Z"/>
  <path class="cls-2" d="M1196.5,473.72c0,7.57-6.09,13.72-13.61,13.72s-13.62-6.15-13.62-13.72,6.1-13.72,13.62-13.72,13.61,6.14,13.61,13.72ZM1182.89,457.43c-8.93,0-16.16,7.28-16.16,16.29s7.23,16.29,16.16,16.29,16.16-7.28,16.16-16.29-7.24-16.29-16.16-16.29Z"/>
  <g>
    <path class="cls-2" d="M.97,470.68c-.58-1.37-.97-3.13-.97-4.69,0-6.64,5.62-11.72,12.21-11.72,5.81,0,10.27,3.71,11.82,8.79l31.19,93.94,30.61-93.55c1.94-5.67,6.01-9.57,12.01-9.57h1.74c6.01,0,10.27,3.91,12.01,9.57l30.61,93.55,31.19-94.14c1.74-4.88,5.81-8.59,11.62-8.59,6.39,0,11.82,5.08,11.82,11.52,0,1.56-.58,3.52-1.16,4.88l-40.11,113.28c-2.13,6.06-6.59,9.96-12.4,9.96h-2.33c-5.81,0-10.08-3.71-12.21-9.96l-30.22-89.26-30.23,89.26c-2.13,6.25-6.59,9.96-12.4,9.96h-2.32c-5.81,0-10.07-3.71-12.4-9.96L.97,470.68Z"/>
    <path class="cls-2" d="M246.83,594.31c-29.64,0-52.51-21.68-52.51-53.52v-.39c0-29.49,20.73-53.71,49.99-53.71,32.55,0,48.63,26.95,48.63,50.78,0,6.64-5.04,11.33-11.04,11.33h-64.13c2.52,16.8,14.34,26.17,29.45,26.17,9.88,0,17.63-3.52,24.22-8.98,1.74-1.37,3.29-2.15,6.01-2.15,5.23,0,9.3,4.1,9.3,9.57,0,2.93-1.36,5.47-3.1,7.23-9.3,8.4-20.93,13.67-36.81,13.67ZM270.08,533.18c-1.55-15.23-10.46-27.15-25.96-27.15-14.34,0-24.41,11.13-26.54,27.15h52.51Z"/>
    <path class="cls-2" d="M360.94,509.16h-4.07c-5.43,0-9.88-4.3-9.88-9.77s4.46-9.96,9.88-9.96h4.07v-7.62c0-11.33,2.91-19.92,8.33-25.39,5.42-5.47,12.98-8.2,23.06-8.2,4.65,0,8.52.39,11.82.98,4.26.59,8.14,4.49,8.14,9.77s-4.46,9.96-9.88,9.76c-1.36-.2-3.29-.39-4.84-.39-8.91,0-13.56,4.88-13.56,15.62v5.66h18.21c5.62,0,9.88,4.3,9.88,9.77s-4.46,9.77-9.88,9.77h-17.83v72.07c0,6.45-5.23,11.72-11.82,11.72s-11.62-5.27-11.62-11.72v-72.07ZM428.17,461.11c0-7.03,5.81-11.53,13.37-11.53s13.37,4.49,13.37,11.53v1.17c0,7.03-5.81,11.72-13.37,11.72s-13.37-4.69-13.37-11.72v-1.17ZM429.92,499.59c0-6.64,5.04-11.91,11.62-11.91s11.82,5.27,11.82,11.91v81.64c0,6.64-5.23,11.72-11.82,11.72s-11.62-5.08-11.62-11.72v-81.64Z"/>
    <path class="cls-2" d="M474.28,499.59c0-6.64,5.04-11.91,11.62-11.91s11.82,5.27,11.82,11.91v5.08c6.59-9.57,16.08-17.97,31.97-17.97,23.06,0,36.43,15.62,36.43,39.45v55.08c0,6.64-5.04,11.72-11.62,11.72s-11.82-5.08-11.82-11.72v-47.85c0-16.02-7.94-25.2-21.89-25.2s-23.06,9.57-23.06,25.59v47.46c0,6.64-5.23,11.72-11.82,11.72s-11.62-5.08-11.62-11.72v-81.64Z"/>
    <path class="cls-2" d="M685.27,581.23c0,6.64-5.23,11.72-11.62,11.72s-11.82-5.08-11.82-11.72v-6.45c-7.56,10.74-18.21,19.34-34.88,19.34-24.03,0-47.47-19.34-47.47-53.52v-.39c0-34.18,23.06-53.51,47.47-53.51,16.86,0,27.51,8.4,34.88,18.16v-44.73c0-6.64,5.23-11.72,11.63-11.72s11.82,5.08,11.82,11.72v121.09ZM603.12,540.21v.39c0,19.92,13.56,33.01,29.45,33.01s29.64-13.28,29.64-33.01v-.39c0-19.92-13.95-33.01-29.64-33.01s-29.45,12.5-29.45,33.01Z"/>
    <path class="cls-2" d="M774.77,583.18l-27.51-78.51c-.58-1.56-1.16-4.1-1.16-6.06,0-5.67,4.46-10.94,11.43-10.94,5.81,0,9.69,3.91,11.43,9.37l19.76,62.5,19.96-62.5c1.74-5.47,6-9.37,12.01-9.37h1.36c6.01,0,10.27,3.91,12.01,9.37l20.15,62.5,19.96-62.69c1.55-5.08,5.23-9.18,11.43-9.18s11.04,5.08,11.04,10.94c0,1.76-.58,4.1-.97,5.27l-27.9,79.29c-2.52,7.23-7.36,10.55-12.98,10.55h-.77c-5.81,0-10.66-3.32-12.79-10.16l-19.96-61.33-20.15,61.33c-2.13,6.84-6.98,10.16-12.59,10.16h-.78c-5.81,0-10.66-3.32-12.98-10.55Z"/>
    <path class="cls-2" d="M900.31,562.28v-.39c0-22.27,17.24-33.2,42.24-33.2,11.43,0,19.57,1.76,27.51,4.3v-2.54c0-14.65-8.91-22.46-25.38-22.46-8.91,0-16.28,1.56-22.67,4.1-1.36.39-2.52.59-3.68.59-5.42,0-9.88-4.3-9.88-9.76,0-4.3,2.91-8.01,6.39-9.38,9.69-3.71,19.57-6.05,32.94-6.05,15.31,0,26.74,4.1,33.91,11.52,7.56,7.42,11.04,18.36,11.04,31.84v50.78c0,6.45-5.04,11.33-11.43,11.33-6.78,0-11.43-4.69-11.43-9.96v-3.91c-6.97,8.4-17.63,15.04-33.33,15.04-19.18,0-36.23-11.13-36.23-31.84ZM970.45,554.86v-7.03c-6.01-2.34-13.95-4.1-23.25-4.1-15.11,0-24.03,6.45-24.03,17.19v.39c0,9.96,8.72,15.62,19.96,15.62,15.5,0,27.32-8.98,27.32-22.07Z"/>
    <path class="cls-2" d="M1010.94,620.88c-3.49-1.17-7.36-4.1-7.36-9.77s4.46-9.77,9.5-9.77c1.94,0,3.1.39,4.26.78,2.71.78,4.84,1.37,8.14,1.37,6.97,0,10.66-2.93,14.53-10.94l.77-2.15-37.98-85.55c-.77-1.76-1.35-4.1-1.35-5.66,0-6.64,5.04-11.52,11.62-11.52,6,0,9.3,3.52,11.43,8.99l27.51,68.55,25.57-68.55c1.94-4.88,5.23-8.99,11.24-8.99s11.24,4.88,11.24,11.13c0,1.95-.58,4.49-.97,5.66l-37.39,90.43c-8.72,21.09-18.02,28.91-34.49,28.91-6.59,0-11.43-.98-16.28-2.93Z"/>
    <path class="cls-2" d="M1106.27,581.62c-2.52-1.37-4.46-4.3-4.46-8.2,0-5.27,4.07-9.57,9.49-9.57,1.94,0,3.68.59,5.04,1.37,9.88,6.64,20.15,9.96,29.45,9.96,10.08,0,15.89-4.3,15.89-11.13v-.39c0-8.01-10.85-10.74-22.86-14.45-15.11-4.29-31.97-10.55-31.97-30.27v-.39c0-19.53,16.08-31.44,36.42-31.44,10.85,0,22.28,3.12,32.16,8.4,3.29,1.76,5.62,4.88,5.62,8.98,0,5.47-4.26,9.57-9.69,9.57-1.94,0-3.1-.39-4.65-1.17-8.33-4.3-16.86-7.03-24.03-7.03-9.1,0-14.34,4.29-14.34,10.16v.39c0,7.62,11.04,10.74,23.06,14.65,14.92,4.69,31.77,11.52,31.77,30.08v.39c0,21.68-16.66,32.42-37.98,32.42-12.98,0-27.12-4.1-38.94-12.3Z"/>
  </g>
</svg>